HIERARCHY
ROOT Hips
{
	OFFSET -0.001795 -0.223333 0.028219
	CHANNELS 6 Xposition Yposition Zposition Zrotation Yrotation Xrotation 
	JOINT LeftUpLeg
	{
		OFFSET 0.069520 -0.091406 -0.006815
		CHANNELS 3 Zrotation Yrotation Xrotation
		JOINT LeftLeg
		{
			OFFSET 0.034277 -0.375199 -0.004496
			CHANNELS 3 Zrotation Yrotation Xrotation
			JOINT LeftFoot
			{
				OFFSET -0.013596 -0.397961 -0.043693
				CHANNELS 3 Zrotation Yrotation Xrotation
				JOINT LeftToe
				{
					OFFSET 0.026358 -0.055791 0.119288
					CHANNELS 3 Zrotation Yrotation Xrotation
					End Site
					{
						OFFSET 0.000000 0.000000 0.000000
					}
				}
			}
		}
	}
	JOINT RightUpLeg
	{
		OFFSET -0.067670 -0.090522 -0.004320
		CHANNELS 3 Zrotation Yrotation Xrotation
		JOINT RightLeg
		{
			OFFSET -0.038290 -0.382569 -0.008850
			CHANNELS 3 Zrotation Yrotation Xrotation
			JOINT RightFoot
			{
				OFFSET 0.015774 -0.398415 -0.042312
				CHANNELS 3 Zrotation Yrotation Xrotation
				JOINT RightToe
				{
					OFFSET -0.025372 -0.048144 0.123348
					CHANNELS 3 Zrotation Yrotation Xrotation
					End Site
					{
						OFFSET 0.000000 0.000000 0.000000
					}
				}
			}
		}
	}
	JOINT Spine
	{
		OFFSET -0.002533 0.108963 -0.026696
		CHANNELS 3 Zrotation Yrotation Xrotation
		JOINT Spine1
		{
			OFFSET 0.005487 0.135180 0.001092
			CHANNELS 3 Zrotation Yrotation Xrotation
			JOINT Spine2
			{
				OFFSET 0.001457 0.052922 0.025425
				CHANNELS 3 Zrotation Yrotation Xrotation
				JOINT Neck
				{
					OFFSET -0.002778 0.213870 -0.042857
					CHANNELS 3 Zrotation Yrotation Xrotation
					JOINT Head
					{
						OFFSET 0.005152 0.064970 0.051349
						CHANNELS 3 Zrotation Yrotation Xrotation
						End Site
						{
							OFFSET 0.000000 0.000000 0.000000
						}
					}
				}
				JOINT LeftShoulder
				{
					OFFSET 0.078845 0.121749 -0.034090
					CHANNELS 3 Zrotation Yrotation Xrotation
					JOINT LeftArm
					{
						OFFSET 0.090977 0.030469 -0.008868
						CHANNELS 3 Zrotation Yrotation Xrotation
						JOINT LeftForeArm
						{
							OFFSET 0.259612 -0.012772 -0.027456
							CHANNELS 3 Zrotation Yrotation Xrotation
							JOINT LeftHand
							{
								OFFSET 0.249234 0.008986 -0.001171
								CHANNELS 3 Zrotation Yrotation Xrotation
								End Site
								{
									OFFSET 0.000000 0.000000 0.000000
								}
							}
						}
					}
				}
				JOINT RightShoulder
				{
					OFFSET -0.081759 0.118833 -0.038615
					CHANNELS 3 Zrotation Yrotation Xrotation
					JOINT RightArm
					{
						OFFSET -0.096012 0.032551 -0.009143
						CHANNELS 3 Zrotation Yrotation Xrotation
						JOINT RightForeArm
						{
							OFFSET -0.253742 -0.013329 -0.021401
							CHANNELS 3 Zrotation Yrotation Xrotation
							JOINT RightHand
							{
								OFFSET -0.255298 0.007772 -0.005559
								CHANNELS 3 Zrotation Yrotation Xrotation
								End Site
								{
									OFFSET 0.000000 0.000000 0.000000
								}
							}
						}
					}
				}
			}
		}
	}
}
MOTION
Frames: 7
Frame Time: 0.050000
-0.004223 0.893525 -0.066434 -2.598977 -6.171934 1.668393 8.385526 -0.137331 -21.535144 -2.847738 0.990010 37.186131 2.804051 4.430188 -5.004657 0.000000 0.000000 0.000000 -0.752103 2.342368 -22.098523 0.337946 2.383435 37.288330 -6.027595 -15.301609 1.857038 0.000000 0.000000 0.000000 8.725811 -0.764711 5.957151 -0.993162 0.482674 0.650624 -9.435970 9.420697 2.274973 17.791231 -9.662936 -14.226138 0.000000 0.000000 0.000000 -15.573866 -9.959907 1.550549 -12.901929 4.701563 -1.427458 -123.884647 -69.660388 106.735037 0.000000 0.000000 0.000000 11.890676 -0.043177 0.122233 15.686446 -1.223144 -1.863548 111.815644 55.227174 81.755355 0.000000 0.000000 0.000000 
-0.004534 0.894664 -0.066298 -2.511178 -6.074311 1.604945 8.097620 -0.199653 -21.486867 -2.523946 0.817838 37.145487 2.731698 4.392160 -4.590963 0.000000 0.000000 0.000000 -0.987278 2.242681 -21.606781 0.539224 2.216018 36.573595 -6.008383 -15.220713 1.697693 0.000000 0.000000 0.000000 8.976605 -0.709809 5.365733 -0.964729 0.469742 0.857092 -9.142686 9.001175 2.534979 16.928464 -9.517672 -12.968545 0.000000 0.000000 0.000000 -16.000981 -9.740925 1.505740 -13.497981 3.846219 -1.457738 -124.728584 -67.872751 105.989581 0.000000 0.000000 0.000000 11.371308 -0.290819 -0.061956 15.830002 -0.180051 -1.790049 114.848047 56.685248 86.868354 0.000000 0.000000 0.000000 
-0.005728 0.895768 -0.065805 -2.236638 -6.135185 1.536256 7.698776 -0.273732 -21.128490 -2.274740 0.698456 36.683488 2.738558 4.488957 -4.367270 0.000000 0.000000 0.000000 -1.298302 2.153084 -21.231611 0.639107 2.138213 36.055408 -5.953948 -15.055799 1.511107 0.000000 0.000000 0.000000 8.928894 -0.677787 5.130921 -0.887185 0.430167 0.484261 -8.969891 8.857391 2.761262 16.112787 -9.184477 -12.311022 0.000000 0.000000 0.000000 -15.829218 -9.152348 1.303258 -14.588194 3.627651 -1.595335 -127.329075 -65.918488 107.076605 0.000000 0.000000 0.000000 11.040359 -0.849089 -0.359249 15.954930 1.112578 -1.699138 117.964494 57.594501 91.612292 0.000000 0.000000 0.000000 
-0.007924 0.896575 -0.064984 -2.097560 -5.730814 1.391928 7.530729 -0.328184 -20.943388 -2.010784 0.503166 36.552177 2.575557 4.184517 -4.092532 0.000000 0.000000 0.000000 -1.519243 2.046490 -20.710285 0.981516 1.893920 35.605158 -6.065926 -15.273575 1.375262 0.000000 0.000000 0.000000 8.979427 -0.619641 4.608405 -0.950164 0.461425 0.983114 -9.037113 8.608624 2.482651 15.500322 -9.080133 -11.200207 0.000000 0.000000 0.000000 -15.736286 -8.996491 1.222732 -15.110271 2.674099 -1.568428 -128.669280 -64.255014 106.908909 0.000000 0.000000 0.000000 10.627976 -1.172090 -0.513485 16.154974 1.355299 -1.684476 121.356069 57.009846 95.152311 0.000000 0.000000 0.000000 
-0.010893 0.896864 -0.064110 -1.975248 -5.505339 1.512207 7.457825 -0.358004 -21.206405 -1.780596 0.363676 36.760699 2.454203 4.033445 -3.680359 0.000000 0.000000 0.000000 -1.484133 1.998422 -20.294645 0.987209 1.803825 34.877744 -6.184989 -15.435317 0.782065 0.000000 0.000000 0.000000 9.002700 -0.574651 4.166281 -1.186535 0.575337 0.836954 -9.098141 8.573641 2.710148 15.328417 -8.984080 -11.140165 0.000000 0.000000 0.000000 -15.391371 -8.390150 0.967999 -15.535635 2.450558 -1.608817 -131.383529 -62.190336 108.063711 0.000000 0.000000 0.000000 10.324827 -1.457294 -0.635544 16.118987 1.322095 -1.684713 123.745714 55.649816 96.559377 0.000000 0.000000 0.000000 
-0.014041 0.896621 -0.063368 -1.758853 -5.430547 1.456198 7.367853 -0.378323 -21.097263 -1.673518 0.302461 36.727920 2.419199 3.980636 -3.594413 0.000000 0.000000 0.000000 -1.637841 1.912733 -19.727245 1.154933 1.672931 34.172615 -6.270975 -15.468061 -0.098855 0.000000 0.000000 0.000000 8.934836 -0.537198 3.876295 -1.630278 0.793563 0.991271 -9.211708 9.238508 2.685896 15.307075 -9.148949 -10.435333 0.000000 0.000000 0.000000 -14.976388 -8.351534 0.845571 -15.745258 2.052498 -1.570136 -132.437173 -61.573863 108.406307 0.000000 0.000000 0.000000 10.184671 -1.856472 -0.732706 16.014925 0.438633 -1.771294 125.032688 54.135225 96.783729 0.000000 0.000000 0.000000 
-0.016856 0.896015 -0.063009 -1.579315 -4.969701 1.429430 7.092275 -0.457441 -21.208861 -1.229358 0.019867 36.853608 2.311513 3.704960 -3.631387 0.000000 0.000000 0.000000 -1.805709 1.854707 -19.528337 1.448596 1.481447 34.063384 -6.470873 -15.872344 -0.543770 0.000000 0.000000 0.000000 8.767306 -0.500554 3.591828 -1.913664 0.932062 1.079278 -9.262436 9.555638 3.159563 15.325699 -9.167031 -10.402263 0.000000 0.000000 0.000000 -15.017771 -8.218731 0.684514 -16.616944 1.867332 -1.644473 -134.000976 -61.852739 110.528558 0.000000 0.000000 0.000000 9.622526 -1.950310 -0.707858 16.906814 -0.420671 -1.958536 126.836324 53.337961 98.612740 0.000000 0.000000 0.000000 
